<?xml version="1.0" encoding="utf-8"?>
<!-- Svg Vector Icons : http://www.onlinewebfonts.com/icon -->
<!DOCTYPE svg PUBLIC "-//W3C//DTD SVG 1.1//EN" "http://www.w3.org/Graphics/SVG/1.1/DTD/svg11.dtd">
<svg version="1.1" xmlns="http://www.w3.org/2000/svg" xmlns:xlink="http://www.w3.org/1999/xlink" x="0px" y="0px" viewBox="0 0 1000 1000" enable-background="new 0 0 1000 1000" xml:space="preserve">
<metadata> Svg Vector Icons : http://www.onlinewebfonts.com/icon </metadata>
<g><path d="M920,80.5H80c-38.7,0-70,31.3-70,70v560c0,38.7,31.3,70,70,70h315v68.9h-70c-19.3,0-35,15.7-35,35c0,19.3,15.7,35,35,35h350c19.3,0,35-15.7,35-35c0-19.3-15.7-35-35-35h-70v-68.9h315c38.7,0,70-31.3,70-70v-560C990,111.9,958.7,80.5,920,80.5z M920,687.6c0,12.1-9.8,21.9-21.9,21.9H101.9c-12.1,0-21.9-9.8-21.9-21.9V171.3c0-12.1,9.8-21.9,21.9-21.9h796.3c12.1,0,21.9,9.8,21.9,21.9V687.6z"/></g>
</svg>